999
dxfrw 0.5.10
0
SECTION
2
HEADER
9
$ACADVER
1
AC1021
9
$HANDSEED
5
20000
9
$DWGCODEPAGE
3
ANSI_1252
9
$INSBASE
10
0
20
0
30
0
9
$EXTMIN
10
-407.880869402
20
-2184.7
30
0
9
$EXTMAX
10
901
20
633.835981535
30
0
9
$LIMMIN
10
0
20
0
9
$LIMMAX
10
12
20
9
9
$ORTHOMODE
70
0
9
$LTSCALE
40
1
9
$TEXTSTYLE
7
Standard
9
$DIMASZ
40
10
9
$DIMSCALE
40
1
9
$DIMEXO
40
0.1
9
$DIMEXE
40
0.125
9
$DIMTXT
40
15
9
$DIMTSZ
40
0
9
$DIMAUNIT
70
0
9
$DIMADEC
70
2
9
$DIMLUNIT
70
2
9
$DIMSTYLE
2
Standard
9
$DIMGAP
40
5
9
$DIMTIH
70
1
9
$LUNITS
70
2
9
$LUPREC
70
4
9
$AUNITS
70
0
9
$AUPREC
70
2
9
$SPLINESEGS
70
8
9
$GRIDMODE
70
0
9
$SNAPSTYLE
70
0
9
$PINSBASE
10
0
20
0
30
0
9
$PLIMMIN
10
-0.25
20
-0.25
9
$PLIMMAX
10
10.75
20
8.25
9
$INSUNITS
70
5
9
$PSVPSCALE
40
0
0
ENDSEC
0
SECTION
2
CLASSES
0
ENDSEC
0
SECTION
2
TABLES
0
TABLE
2
VPORT
5
8
330
0
100
AcDbSymbolTable
70
1
0
VPORT
5
31
330
2
100
AcDbSymbolTableRecord
100
AcDbViewportTableRecord
2
*ACTIVE
70
0
10
0
20
0
11
1
21
1
12
697.137477892
22
411.298178051
13
0
23
0
14
10
24
10
15
10
25
10
16
0
26
0
36
1
17
0
27
0
37
0
40
1158.87788533
41
2.06026785714
42
50
43
0
44
0
50
0
51
0
71
0
72
100
73
1
74
3
75
0
76
0
77
0
78
0
281
0
65
1
110
0
120
0
130
0
111
1
121
0
131
0
112
0
122
1
132
0
79
0
146
0
348
10020
60
7
61
5
292
1
282
1
141
0
142
0
63
250
421
3358443
0
ENDTAB
0
TABLE
2
LTYPE
5
5
330
0
100
AcDbSymbolTable
70
4
0
LTYPE
5
14
330
5
100
AcDbSymbolTableRecord
100
AcDbLinetypeTableRecord
2
ByBlock
70
0
3

72
65
73
0
40
0
0
LTYPE
5
15
330
5
100
AcDbSymbolTableRecord
100
AcDbLinetypeTableRecord
2
ByLayer
70
0
3

72
65
73
0
40
0
0
LTYPE
5
16
330
5
100
AcDbSymbolTableRecord
100
AcDbLinetypeTableRecord
2
Continuous
70
0
3
Solid line
72
65
73
0
40
0
0
LTYPE
5
32
330
5
100
AcDbSymbolTableRecord
100
AcDbLinetypeTableRecord
2
DOT
70
0
3
Dot . . . . . . . . . . . . . . . . . . . . . .
72
65
73
2
40
6.35
49
0
74
0
49
-6.35
74
0
0
LTYPE
5
33
330
5
100
AcDbSymbolTableRecord
100
AcDbLinetypeTableRecord
2
DOT2
70
0
3
Dot (.5x) .....................................
72
65
73
2
40
3.175
49
0
74
0
49
-3.175
74
0
0
LTYPE
5
34
330
5
100
AcDbSymbolTableRecord
100
AcDbLinetypeTableRecord
2
DOTX2
70
0
3
Dot (2x) .  .  .  .  .  .  .  .  .  .  .  .  .
72
65
73
2
40
12.7
49
0
74
0
49
-12.7
74
0
0
LTYPE
5
35
330
5
100
AcDbSymbolTableRecord
100
AcDbLinetypeTableRecord
2
DASHED
70
0
3
Dot . . . . . . . . . . . . . . . . . . . . . .
72
65
73
2
40
19.05
49
12.7
74
0
49
-6.35
74
0
0
LTYPE
5
36
330
5
100
AcDbSymbolTableRecord
100
AcDbLinetypeTableRecord
2
DASHED2
70
0
3
Dashed (.5x) _ _ _ _ _ _ _ _ _ _ _ _ _ _ _ _ _
72
65
73
2
40
9.525
49
6.35
74
0
49
-3.175
74
0
0
LTYPE
5
37
330
5
100
AcDbSymbolTableRecord
100
AcDbLinetypeTableRecord
2
DASHEDX2
70
0
3
Dashed (2x) ____  ____  ____  ____  ____  ___
72
65
73
2
40
38.1
49
25.4
74
0
49
-12.7
74
0
0
LTYPE
5
38
330
5
100
AcDbSymbolTableRecord
100
AcDbLinetypeTableRecord
2
DASHDOT
70
0
3
Dash dot __ . __ . __ . __ . __ . __ . __ . __
72
65
73
4
40
25.4
49
12.7
74
0
49
-6.35
74
0
49
0
74
0
49
-6.35
74
0
0
LTYPE
5
39
330
5
100
AcDbSymbolTableRecord
100
AcDbLinetypeTableRecord
2
DASHDOT2
70
0
3
Dash dot (.5x) _._._._._._._._._._._._._._._.
72
65
73
4
40
12.7
49
6.35
74
0
49
-3.175
74
0
49
0
74
0
49
-3.175
74
0
0
LTYPE
5
3A
330
5
100
AcDbSymbolTableRecord
100
AcDbLinetypeTableRecord
2
DASHDOTX2
70
0
3
Dash dot (2x) ____  .  ____  .  ____  .  ___
72
65
73
4
40
50.8
49
25.4
74
0
49
-12.7
74
0
49
0
74
0
49
-12.7
74
0
0
LTYPE
5
3B
330
5
100
AcDbSymbolTableRecord
100
AcDbLinetypeTableRecord
2
DIVIDE
70
0
3
Divide ____ . . ____ . . ____ . . ____ . . ____
72
65
73
6
40
31.75
49
12.7
74
0
49
-6.35
74
0
49
0
74
0
49
-6.35
74
0
49
0
74
0
49
-6.35
74
0
0
LTYPE
5
3C
330
5
100
AcDbSymbolTableRecord
100
AcDbLinetypeTableRecord
2
DIVIDE2
70
0
3
Divide (.5x) __..__..__..__..__..__..__..__.._
72
65
73
6
40
15.875
49
6.35
74
0
49
-3.175
74
0
49
0
74
0
49
-3.175
74
0
49
0
74
0
49
-3.175
74
0
0
LTYPE
5
3D
330
5
100
AcDbSymbolTableRecord
100
AcDbLinetypeTableRecord
2
DIVIDEX2
70
0
3
Divide (2x) ________  .  .  ________  .  .  _
72
65
73
6
40
63.5
49
25.4
74
0
49
-12.7
74
0
49
0
74
0
49
-12.7
74
0
49
0
74
0
49
-12.7
74
0
0
LTYPE
5
3E
330
5
100
AcDbSymbolTableRecord
100
AcDbLinetypeTableRecord
2
BORDER
70
0
3
Border __ __ . __ __ . __ __ . __ __ . __ __ .
72
65
73
6
40
44.45
49
12.7
74
0
49
-6.35
74
0
49
12.7
74
0
49
-6.35
74
0
49
0
74
0
49
-6.35
74
0
0
LTYPE
5
3F
330
5
100
AcDbSymbolTableRecord
100
AcDbLinetypeTableRecord
2
BORDER2
70
0
3
Border (.5x) __.__.__.__.__.__.__.__.__.__.__.
72
65
73
6
40
22.225
49
6.35
74
0
49
-3.175
74
0
49
6.35
74
0
49
-3.175
74
0
49
0
74
0
49
-3.175
74
0
0
LTYPE
5
40
330
5
100
AcDbSymbolTableRecord
100
AcDbLinetypeTableRecord
2
BORDERX2
70
0
3
Border (2x) ____  ____  .  ____  ____  .  ___
72
65
73
6
40
88.9
49
25.4
74
0
49
-12.7
74
0
49
25.4
74
0
49
-12.7
74
0
49
0
74
0
49
-12.7
74
0
0
LTYPE
5
41
330
5
100
AcDbSymbolTableRecord
100
AcDbLinetypeTableRecord
2
CENTER
70
0
3
Center ____ _ ____ _ ____ _ ____ _ ____ _ ____
72
65
73
4
40
50.8
49
31.75
74
0
49
-6.35
74
0
49
6.35
74
0
49
-6.35
74
0
0
LTYPE
5
42
330
5
100
AcDbSymbolTableRecord
100
AcDbLinetypeTableRecord
2
CENTER2
70
0
3
Center (.5x) ___ _ ___ _ ___ _ ___ _ ___ _ ___
72
65
73
4
40
28.575
49
19.05
74
0
49
-3.175
74
0
49
3.175
74
0
49
-3.175
74
0
0
LTYPE
5
43
330
5
100
AcDbSymbolTableRecord
100
AcDbLinetypeTableRecord
2
CENTERX2
70
0
3
Center (2x) ________  __  ________  __  _____
72
65
73
4
40
101.6
49
63.5
74
0
49
-12.7
74
0
49
12.7
74
0
49
-12.7
74
0
0
ENDTAB
0
TABLE
2
LAYER
5
2
330
0
100
AcDbSymbolTable
70
1
0
LAYER
5
10
330
2
100
AcDbSymbolTableRecord
100
AcDbLayerTableRecord
2
0
70
0
62
7
6
CONTINUOUS
370
0
390
F
0
LAYER
5
44
330
2
100
AcDbSymbolTableRecord
100
AcDbLayerTableRecord
2
29B dimensions
70
4
62
3
6
CONTINUOUS
370
0
390
F
0
LAYER
5
45
330
2
100
AcDbSymbolTableRecord
100
AcDbLayerTableRecord
2
Defpoints
70
4
62
7
6
CONTINUOUS
290
0
370
-3
390
F
0
LAYER
5
46
330
2
100
AcDbSymbolTableRecord
100
AcDbLayerTableRecord
2
29A
70
0
62
7
6
CONTINUOUS
370
0
390
F
0
LAYER
5
47
330
2
100
AcDbSymbolTableRecord
100
AcDbLayerTableRecord
2
29B
70
0
62
7
6
CONTINUOUS
370
0
390
F
0
LAYER
5
48
330
2
100
AcDbSymbolTableRecord
100
AcDbLayerTableRecord
2
29A dimensions
70
0
62
3
6
CONTINUOUS
370
0
390
F
0
ENDTAB
0
TABLE
2
STYLE
5
3
330
0
100
AcDbSymbolTable
70
3
0
STYLE
5
49
330
2
100
AcDbSymbolTableRecord
100
AcDbTextStyleTableRecord
2
standard
70
0
40
0
41
1
50
0
71
0
42
1
3
standard
4

0
ENDTAB
0
TABLE
2
VIEW
5
6
330
0
100
AcDbSymbolTable
70
0
0
ENDTAB
0
TABLE
2
UCS
5
7
330
0
100
AcDbSymbolTable
70
0
0
ENDTAB
0
TABLE
2
APPID
5
9
330
0
100
AcDbSymbolTable
70
1
0
APPID
5
12
330
9
100
AcDbSymbolTableRecord
100
AcDbRegAppTableRecord
2
ACAD
70
0
0
ENDTAB
0
TABLE
2
DIMSTYLE
5
A
330
0
100
AcDbSymbolTable
70
1
100
AcDbDimStyleTable
71
1
0
DIMSTYLE
105
4A
330
A
100
AcDbSymbolTableRecord
100
AcDbDimStyleTableRecord
2
Standard
70
0
40
1
41
10
42
0.1
43
0.38
44
0.125
45
0
46
0
47
0
48
0
140
15
141
0.09
142
0
143
25.4
144
1
145
0
146
1
147
5
148
0
71
0
72
0
73
0
74
1
75
0
76
0
77
0
78
0
79
0
170
0
171
2
172
0
173
0
174
0
175
0
176
0
177
0
178
0
179
0
271
4
272
4
273
2
274
2
275
0
276
0
277
2
278
46
279
0
280
0
281
0
282
0
283
1
284
0
285
0
286
0
288
0
289
3
340
Standard
341

371
-2
372
-2
0
ENDTAB
0
TABLE
2
BLOCK_RECORD
5
1
330
0
100
AcDbSymbolTable
70
2
0
BLOCK_RECORD
5
1F
330
1
100
AcDbSymbolTableRecord
100
AcDbBlockTableRecord
2
*Model_Space
70
0
280
1
281
0
0
BLOCK_RECORD
5
1E
330
1
100
AcDbSymbolTableRecord
100
AcDbBlockTableRecord
2
*Paper_Space
70
0
280
1
281
0
0
ENDTAB
0
ENDSEC
0
SECTION
2
BLOCKS
0
BLOCK
5
20
330
1F
100
AcDbEntity
8
0
100
AcDbBlockBegin
2
*Model_Space
70
0
10
0
20
0
30
0
3
*Model_Space
1

0
ENDBLK
5
21
330
1F
100
AcDbEntity
8
0
100
AcDbBlockEnd
0
BLOCK
5
1C
330
1B
100
AcDbEntity
8
0
100
AcDbBlockBegin
2
*Paper_Space
70
0
10
0
20
0
30
0
3
*Paper_Space
1

0
ENDBLK
5
1D
330
1F
100
AcDbEntity
8
0
100
AcDbBlockEnd
0
ENDSEC
0
SECTION
2
ENTITIES
0
LINE
5
4B
100
AcDbEntity
8
29B
6
ByLayer
62
256
370
-1
100
AcDbLine
10
0
20
0
11
901
21
0
0
LINE
5
4C
100
AcDbEntity
8
29B
6
ByLayer
62
256
370
-1
100
AcDbLine
10
0
20
0
11
0
21
-990.8
0
LINE
5
4D
100
AcDbEntity
8
29B
6
ByLayer
62
256
370
-1
100
AcDbLine
10
0
20
-990.8
11
489.4
21
-990.8
0
LINE
5
4E
100
AcDbEntity
8
29B
6
ByLayer
62
256
370
-1
100
AcDbLine
10
901
20
0
11
901
21
-195.8
0
LINE
5
4F
100
AcDbEntity
8
29B
6
ByLayer
62
256
370
-1
100
AcDbLine
10
901
20
-195.8
11
744
21
-195.8
0
LINE
5
50
100
AcDbEntity
8
29B
6
ByLayer
62
256
370
-1
100
AcDbLine
10
744
20
-195.8
11
744
21
-701.7
0
LINE
5
51
100
AcDbEntity
8
29B
6
ByLayer
62
256
370
-1
100
AcDbLine
10
744
20
-701.7
11
708
21
-701.7
0
LINE
5
52
100
AcDbEntity
8
29B
6
ByLayer
62
256
370
-1
100
AcDbLine
10
708
20
-701.7
11
708
21
-784.1
0
LINE
5
53
100
AcDbEntity
8
29B
6
ByLayer
62
256
370
-1
100
AcDbLine
10
708
20
-784.1
11
743
21
-784.1
0
LINE
5
54
100
AcDbEntity
8
29B
6
ByLayer
62
256
370
-1
100
AcDbLine
10
743
20
-784.1
11
743
21
-1327.9
0
LINE
5
55
100
AcDbEntity
8
29B
6
ByLayer
62
256
370
-1
100
AcDbLine
10
743
20
-1327.9
11
486.7
21
-1327.9
0
LINE
5
56
100
AcDbEntity
8
29B
6
ByLayer
62
256
370
-1
100
AcDbLine
10
489.4
20
-990.8
11
489.4
21
-1325.2
0
LINE
5
57
100
AcDbEntity
8
29B
6
ByLayer
62
256
370
-1
100
AcDbLine
10
829
20
-10
11
829
21
10
0
LINE
5
58
100
AcDbEntity
8
29B
6
ByLayer
62
256
370
-1
100
AcDbLine
10
729.5
20
-10
11
729.5
21
10
0
LINE
5
59
100
AcDbEntity
8
29B
6
ByLayer
62
256
370
-1
100
AcDbLine
10
-10
20
-3.5
11
10
21
-3.5
0
LINE
5
5A
100
AcDbEntity
8
29B
6
ByLayer
62
256
370
-1
100
AcDbLine
10
-10
20
-98
11
10
21
-98
0
LINE
5
5B
100
AcDbEntity
8
29B
6
ByLayer
62
256
370
-1
100
AcDbLine
10
189.5
20
-783
11
270
21
-783
0
LINE
5
5C
100
AcDbEntity
8
29B
6
ByLayer
62
256
370
-1
100
AcDbLine
10
270
20
-783
11
270
21
-701.5
0
LINE
5
5D
100
AcDbEntity
8
29B
6
ByLayer
62
256
370
-1
100
AcDbLine
10
189.5
20
-783
11
189.5
21
-701.5
0
LINE
5
5E
100
AcDbEntity
8
29B
6
ByLayer
62
256
370
-1
100
AcDbLine
10
189.5
20
-701.5
11
270
21
-701.5
0
LINE
5
5F
100
AcDbEntity
8
29B
6
ByLayer
62
256
370
-1
100
AcDbLine
10
-10
20
-823.799201415
11
10
21
-823.799201415
0
LINE
5
60
100
AcDbEntity
8
29B
6
ByLayer
62
256
370
-1
100
AcDbLine
10
-10
20
-744.86747595
11
10
21
-744.86747595
0
LINE
5
61
100
AcDbEntity
8
29B
6
ByLayer
62
256
370
-1
100
AcDbLine
10
-10
20
-717.799201415
11
10
21
-717.799201415
0
LINE
5
62
100
AcDbEntity
8
29B
6
ByLayer
62
256
370
-1
100
AcDbLine
10
-10
20
-638.86747595
11
10
21
-638.86747595
0
LINE
5
63
100
AcDbEntity
8
29B
6
ByLayer
62
256
370
-1
100
AcDbLine
10
0
20
-980.499201415
11
-271.1
21
-980.499201415
0
LINE
5
64
100
AcDbEntity
8
29B
6
ByLayer
62
256
370
-1
100
AcDbLine
10
-271.1
20
-980.499201415
11
-271.1
21
-731.299201415
0
LINE
5
65
100
AcDbEntity
8
29B
6
ByLayer
62
256
370
-1
100
AcDbLine
10
-271.1
20
-731.299201415
11
0
21
-731.299201415
0
LINE
5
66
100
AcDbEntity
8
29B
6
ByLayer
62
256
370
-1
100
AcDbLine
10
-271.1
20
-731.299201415
11
-271.1
21
-482.099201415
0
LINE
5
67
100
AcDbEntity
8
29B
6
ByLayer
62
256
370
-1
100
AcDbLine
10
-271.1
20
-482.099201415
11
0
21
-482.099201415
0
DIMENSION
5
68
100
AcDbEntity
8
29B dimensions
6
ByLayer
62
256
370
-1
100
AcDbDimension
10
901
20
-138.915301912
30
0
11
450.5
21
-126.415301912
31
0
70
32
71
5
3
Standard
53
0
210
0
220
0
230
1
100
AcDbAlignedDimension
13
0
23
-127.367364757
33
0
14
901
24
-143.245778345
34
0
100
AcDbRotatedDimension
0
DIMENSION
5
69
100
AcDbEntity
8
29B dimensions
6
ByLayer
62
256
370
-1
100
AcDbDimension
10
708
20
-731.035779534
30
0
11
489
21
-718.535779534
31
0
70
32
71
5
3
Standard
53
0
210
0
220
0
230
1
100
AcDbAlignedDimension
13
270
23
-725.424203823
33
0
14
708
24
-725.424203823
34
0
100
AcDbRotatedDimension
0
DIMENSION
5
6A
100
AcDbEntity
8
29B dimensions
6
ByLayer
62
256
370
-1
100
AcDbDimension
10
189.5
20
-728.726192103
30
0
11
94.75
21
-714.976192103
31
0
70
32
71
5
3
Standard
53
0
210
0
220
0
230
1
100
AcDbAlignedDimension
13
0
23
-728.726192103
33
0
14
189.5
24
-728.726192103
34
0
100
AcDbRotatedDimension
0
DIMENSION
5
6B
100
AcDbEntity
8
29B dimensions
6
ByLayer
62
256
370
-1
100
AcDbDimension
10
744
20
-286.440199067
30
0
11
372
21
-273.940199067
31
0
70
32
71
5
3
Standard
53
0
210
0
220
0
230
1
100
AcDbAlignedDimension
13
0
23
-286.440199067
33
0
14
744
24
-286.440199067
34
0
100
AcDbRotatedDimension
0
DIMENSION
5
6C
100
AcDbEntity
8
29B dimensions
6
ByLayer
62
256
370
-1
100
AcDbDimension
10
0
20
-916.95756773
30
0
11
-135.55
21
-903.20756773
31
0
70
32
71
5
3
Standard
53
0
210
0
220
0
230
1
100
AcDbAlignedDimension
13
-271.1
23
-916.95756773
33
0
14
0
24
-916.95756773
34
0
100
AcDbRotatedDimension
0
DIMENSION
5
6D
100
AcDbEntity
8
29B dimensions
6
ByLayer
62
256
370
-1
100
AcDbDimension
10
0
20
-518.553735882
30
0
11
-135.55
21
-504.803735882
31
0
70
32
71
5
3
Standard
53
0
210
0
220
0
230
1
100
AcDbAlignedDimension
13
-271.1
23
-516.244148451
33
0
14
0
24
-516.244148451
34
0
100
AcDbRotatedDimension
0
DIMENSION
5
6E
100
AcDbEntity
8
29B dimensions
6
ByLayer
62
256
370
-1
100
AcDbDimension
10
489.4
20
-1034.74652671
30
0
11
244.7
21
-1020.99652671
31
0
70
32
71
5
3
Standard
53
0
210
0
220
0
230
1
100
AcDbAlignedDimension
13
0
23
-990.8
33
0
14
489.4
24
-1028.97255813
34
0
100
AcDbRotatedDimension
0
DIMENSION
5
6F
100
AcDbEntity
8
29B dimensions
6
ByLayer
62
256
370
-1
100
AcDbDimension
10
270
20
-763.370003568
30
0
11
229.75
21
-749.620003568
31
0
70
32
71
5
3
Standard
53
0
210
0
220
0
230
1
100
AcDbAlignedDimension
13
189.5
23
-763.370003568
33
0
14
270
24
-763.370003568
34
0
100
AcDbRotatedDimension
0
DIMENSION
5
70
100
AcDbEntity
8
29B dimensions
6
ByLayer
62
256
370
-1
100
AcDbDimension
10
743
20
-767.98917843
30
0
11
725.5
21
-755.48917843
31
0
70
32
71
5
3
Standard
53
0
210
0
220
0
230
1
100
AcDbAlignedDimension
13
708
23
-784.1
33
0
14
743
24
-784.1
34
0
100
AcDbRotatedDimension
0
DIMENSION
5
71
100
AcDbEntity
8
29B dimensions
6
ByLayer
62
256
370
-1
100
AcDbDimension
10
829
20
44.4082004239
30
0
11
779.25
21
58.1582004239
31
0
70
32
71
5
3
Standard
53
0
210
0
220
0
230
1
100
AcDbAlignedDimension
13
729.5
23
0
33
0
14
829
24
0
34
0
100
AcDbRotatedDimension
0
DIMENSION
5
72
100
AcDbEntity
8
29B dimensions
6
ByLayer
62
256
370
-1
100
AcDbDimension
10
-53.4959726489
20
-98
30
0
11
-67.2459726489
21
-50.75
31
0
70
32
71
5
3
Standard
53
0
210
0
220
0
230
1
100
AcDbAlignedDimension
13
2.274e-13
23
-3.5
33
0
14
0
24
-98
34
0
50
90
100
AcDbRotatedDimension
0
DIMENSION
5
73
100
AcDbEntity
8
29B dimensions
6
ByLayer
62
256
370
-1
100
AcDbDimension
10
51.5632101928
20
-990.8
30
0
11
37.8132101928
21
-495.4
31
0
70
32
71
5
3
Standard
53
0
210
0
220
0
230
1
100
AcDbAlignedDimension
13
49.7588450123
23
0
33
0
14
49.7588450123
24
-990.8
34
0
50
90
100
AcDbRotatedDimension
0
DIMENSION
5
74
100
AcDbEntity
8
29B dimensions
6
ByLayer
62
256
370
-1
100
AcDbDimension
10
-226.647346071
20
-731.299201415
30
0
11
-240.397346071
21
-606.699201415
31
0
70
32
71
5
3
Standard
53
0
210
0
220
0
230
1
100
AcDbAlignedDimension
13
-226.647346071
23
-482.099201415
33
0
14
-226.647346071
24
-731.299201415
34
0
50
90
100
AcDbRotatedDimension
0
DIMENSION
5
75
100
AcDbEntity
8
29B dimensions
6
ByLayer
62
256
370
-1
100
AcDbDimension
10
-226.97592097
20
-980.499201415
30
0
11
-240.72592097
21
-855.961701415
31
0
70
32
71
5
3
Standard
53
0
210
0
220
0
230
1
100
AcDbAlignedDimension
13
-226.647346071
23
-731.424201415
33
0
14
-226.97592097
24
-980.499201415
34
0
50
90
100
AcDbRotatedDimension
0
DIMENSION
5
76
100
AcDbEntity
8
29B dimensions
6
ByLayer
62
256
370
-1
100
AcDbDimension
10
687.782372826
20
-784.1
30
0
11
674.032372826
21
-742.9
31
0
70
32
71
5
3
Standard
53
0
210
0
220
0
230
1
100
AcDbAlignedDimension
13
708
23
-701.7
33
0
14
708
24
-784.1
34
0
50
90
100
AcDbRotatedDimension
0
DIMENSION
5
77
100
AcDbEntity
8
29B dimensions
6
ByLayer
62
256
370
-1
100
AcDbDimension
10
462.020201446
20
-1325.2
30
0
11
448.270201446
21
-1158
31
0
70
32
71
5
3
Standard
53
0
210
0
220
0
230
1
100
AcDbAlignedDimension
13
489.4
23
-990.8
33
0
14
489.4
24
-1325.2
34
0
50
90
100
AcDbRotatedDimension
0
DIMENSION
5
78
100
AcDbEntity
8
29B dimensions
6
ByLayer
62
256
370
-1
100
AcDbDimension
10
811.20095117
20
-1327.9
30
0
11
797.45095117
21
-1056
31
0
70
32
71
5
3
Standard
53
0
210
0
220
0
230
1
100
AcDbAlignedDimension
13
743
23
-784.1
33
0
14
743
24
-1327.9
34
0
50
90
100
AcDbRotatedDimension
0
DIMENSION
5
79
100
AcDbEntity
8
29B dimensions
6
ByLayer
62
256
370
-1
100
AcDbDimension
10
-24.0278542332
20
-717.799201415
30
0
11
-37.7778542332
21
-678.333338683
31
0
70
32
71
5
3
Standard
53
0
210
0
220
0
230
1
100
AcDbAlignedDimension
13
-10
23
-638.86747595
33
0
14
-10
24
-717.799201415
34
0
50
90
100
AcDbRotatedDimension
0
DIMENSION
5
7A
100
AcDbEntity
8
29B dimensions
6
ByLayer
62
256
370
-1
100
AcDbDimension
10
-31.1229068213
20
-823.799201415
30
0
11
-44.8729068213
21
-784.333338683
31
0
70
32
71
5
3
Standard
53
0
210
0
220
0
230
1
100
AcDbAlignedDimension
13
-10
23
-744.86747595
33
0
14
-10
24
-823.799201415
34
0
50
90
100
AcDbRotatedDimension
0
DIMENSION
5
7B
100
AcDbEntity
8
29B dimensions
6
ByLayer
62
256
370
-1
100
AcDbDimension
10
708
20
-701.7
30
0
11
694.25
21
-448.75
31
0
70
32
71
5
3
Standard
53
0
210
0
220
0
230
1
100
AcDbAlignedDimension
13
744
23
-195.8
33
0
14
744
24
-701.7
34
0
50
90
100
AcDbRotatedDimension
0
DIMENSION
5
7C
100
AcDbEntity
8
29B dimensions
6
ByLayer
62
256
370
-1
100
AcDbDimension
10
881.345647561
20
-195.8
30
0
11
867.595647561
21
-97.9
31
0
70
32
71
5
3
Standard
53
0
210
0
220
0
230
1
100
AcDbAlignedDimension
13
881.345647561
23
0
33
0
14
881.345647561
24
-195.8
34
0
50
90
100
AcDbRotatedDimension
0
DIMENSION
5
7D
100
AcDbEntity
8
29B dimensions
6
ByLayer
62
256
370
-1
100
AcDbDimension
10
901
20
-234.862420383
30
0
11
822.5
21
-222.362420383
31
0
70
32
71
5
3
Standard
53
0
210
0
220
0
230
1
100
AcDbAlignedDimension
13
744
23
-195.8
33
0
14
901
24
-195.8
34
0
100
AcDbRotatedDimension
0
DIMENSION
5
7E
100
AcDbEntity
8
29B dimensions
6
ByLayer
62
256
370
-1
100
AcDbDimension
10
168.702154268
20
-783
30
0
11
154.952154268
21
-742.25
31
0
70
32
71
5
3
Standard
53
0
210
0
220
0
230
1
100
AcDbAlignedDimension
13
189.5
23
-701.5
33
0
14
189.5
24
-783
34
0
50
90
100
AcDbRotatedDimension
0
DIMENSION
5
7F
100
AcDbEntity
8
29B dimensions
6
ByLayer
62
256
370
-1
100
AcDbDimension
10
201.240065437
20
-990.8
30
0
11
187.490065437
21
-886.9
31
0
70
32
71
5
3
Standard
53
0
210
0
220
0
230
1
100
AcDbAlignedDimension
13
201.240065437
23
-783
33
0
14
201.240065437
24
-990.8
34
0
50
90
100
AcDbRotatedDimension
0
DIMENSION
5
80
100
AcDbEntity
8
29B dimensions
6
ByLayer
62
256
370
-1
100
AcDbDimension
10
28.7415993903
20
-990.8
30
0
11
16.2415993903
21
-907.299600708
31
0
70
32
71
5
3
Standard
53
0
210
0
220
0
230
1
100
AcDbAlignedDimension
13
10
23
-823.799201415
33
0
14
10.2648999423
24
-990.8
34
0
50
90
100
AcDbRotatedDimension
0
DIMENSION
5
81
100
AcDbEntity
8
29B dimensions
6
ByLayer
62
256
370
-1
100
AcDbDimension
10
-117.304869455
20
-744.86747595
30
0
11
-131.054869455
21
-792.36747595
31
0
70
32
71
5
3
Standard
53
0
210
0
220
0
230
1
100
AcDbAlignedDimension
13
-10
23
-717.799201415
33
0
14
-10
24
-744.86747595
34
0
50
90
100
AcDbRotatedDimension
0
LINE
5
82
100
AcDbEntity
8
0
6
ByLayer
62
256
370
-1
100
AcDbLine
10
100
20
-2184.7
11
100
21
-1800
0
LINE
5
83
100
AcDbEntity
8
0
6
ByLayer
62
256
370
-1
100
AcDbLine
10
800
20
-2184.7
11
800
21
-1800
0
LINE
5
84
100
AcDbEntity
8
0
6
ByLayer
62
256
370
-1
100
AcDbLine
10
300
20
-1896.7
11
800
21
-1896.7
0
LINE
5
85
100
AcDbEntity
8
0
6
ByLayer
62
256
370
-1
100
AcDbLine
10
100
20
-1800
11
800
21
-1800
0
LINE
5
86
100
AcDbEntity
8
0
6
ByLayer
62
256
370
-1
100
AcDbLine
10
300
20
-1896.7
11
300
21
-1800
0
LINE
5
87
100
AcDbEntity
8
0
6
ByLayer
62
256
370
-1
100
AcDbLine
10
80
20
-2184.7
11
820
21
-2184.7
0
DIMENSION
5
88
100
AcDbEntity
8
29B dimensions
6
ByLayer
62
256
370
-1
100
AcDbDimension
10
364.478301488
20
-1896.7
30
0
11
350.728301488
21
-1848.35
31
0
70
32
71
5
3
Standard
53
0
210
0
220
0
230
1
100
AcDbAlignedDimension
13
362.222845012
23
-1800
33
0
14
353.20101911
24
-1896.7
34
0
50
90
100
AcDbRotatedDimension
0
DIMENSION
5
89
100
AcDbEntity
8
29B dimensions
6
ByLayer
62
256
370
-1
100
AcDbDimension
10
420.864713377
20
-2184.7
30
0
11
408.364713377
21
-2040.7
31
0
70
32
71
5
3
Standard
53
0
210
0
220
0
230
1
100
AcDbAlignedDimension
13
434.397452231
23
-1896.7
33
0
14
436.652908706
24
-2184.7
34
0
50
90
100
AcDbRotatedDimension
0
DIMENSION
5
8A
100
AcDbEntity
8
29B dimensions
6
ByLayer
62
256
370
-1
100
AcDbDimension
10
159.231762209
20
-2184.7
30
0
11
145.481762209
21
-1992.35
31
0
70
32
71
5
3
Standard
53
0
210
0
220
0
230
1
100
AcDbAlignedDimension
13
159.231762209
23
-1800
33
0
14
161.487218685
24
-2184.7
34
0
50
90
100
AcDbRotatedDimension
0
MTEXT
5
8B
100
AcDbEntity
8
0
6
ByLayer
62
256
370
-1
100
AcDbMText
10
100
20
-1684.7
30
0
40
30
41
285.833348762
71
1
72
5
1
Ceiling heights
7
standard
210
0
220
0
230
1
50
0
73
2
44
1
0
DIMENSION
5
8C
100
AcDbEntity
8
29B dimensions
6
ByLayer
62
256
370
-1
100
AcDbDimension
10
486.7
20
-1393.87210191
30
0
11
614.9
21
-1380.12210191
31
0
70
32
71
5
3
Standard
53
0
210
0
220
0
230
1
100
AcDbAlignedDimension
13
743.1
23
-1327.9
33
0
14
486.7
24
-1327.9
34
0
100
AcDbRotatedDimension
0
DIMENSION
5
8D
100
AcDbEntity
8
29B dimensions
6
ByLayer
62
256
370
-1
100
AcDbDimension
10
248.491101486
20
0
30
0
11
234.741101486
21
-350.75
31
0
70
32
71
5
72
0
3
Standard
53
0
210
0
220
0
230
1
100
AcDbAlignedDimension
13
251.19209172
23
-701.5
33
0
14
248.491101486
24
0
34
0
50
90
100
AcDbRotatedDimension
0
LINE
5
8E
100
AcDbEntity
8
29A
6
ByBlock
62
256
370
-1
100
AcDbLine
10
270
20
348
11
189
21
348
0
LINE
5
8F
100
AcDbEntity
8
29A
6
ByBlock
62
256
370
-1
100
AcDbLine
10
189
20
348
11
189
21
266
0
LINE
5
90
100
AcDbEntity
8
29A
6
ByBlock
62
256
370
-1
100
AcDbLine
10
189
20
266
11
270
21
266
0
LINE
5
91
100
AcDbEntity
8
29A
6
ByBlock
62
256
370
-1
100
AcDbLine
10
270
20
266
11
270
21
348
0
LINE
5
92
100
AcDbEntity
8
29A
6
ByBlock
62
256
370
-1
100
AcDbLine
10
790
20
348
11
709
21
348
0
LINE
5
93
100
AcDbEntity
8
29A
6
ByBlock
62
256
370
-1
100
AcDbLine
10
709
20
348
11
709
21
266
0
LINE
5
94
100
AcDbEntity
8
29A
6
ByBlock
62
256
370
-1
100
AcDbLine
10
709
20
266
11
790
21
266
0
LINE
5
95
100
AcDbEntity
8
29A
6
ByBlock
62
256
370
-1
100
AcDbLine
10
790
20
266
11
790
21
348
0
LINE
5
96
100
AcDbEntity
8
29A
6
ByBlock
62
256
370
-1
100
AcDbLine
10
-1.54e-14
20
10
11
-1.36e-14
21
39
0
LINE
5
97
100
AcDbEntity
8
29A
6
ByBlock
62
256
370
-1
100
AcDbLine
10
1.006e-13
20
554.5
11
490.5
21
554.5
0
LINE
5
98
100
AcDbEntity
8
29A
6
ByBlock
62
256
370
-1
100
AcDbLine
10
6e-16
20
10
11
710.5
21
10
0
LINE
5
99
100
AcDbEntity
8
29A
6
ByBlock
62
256
370
-1
100
AcDbLine
10
710.5
20
10
11
710.5
21
266
0
LINE
5
9A
100
AcDbEntity
8
29A
6
ByBlock
62
256
370
-1
100
AcDbLine
10
490.5
20
554.5
11
490.5
21
549.5
0
LINE
5
9B
100
AcDbEntity
8
29A
6
ByBlock
62
256
370
-1
100
AcDbLine
10
2.4e-15
20
39
11
-299
21
39
0
LINE
5
9C
100
AcDbEntity
8
29A
6
ByBlock
62
256
370
-1
100
AcDbLine
10
-299
20
39
11
-299
21
201.5
0
LINE
5
9D
100
AcDbEntity
8
29A
6
ByBlock
62
256
370
-1
100
AcDbLine
10
4.37e-14
20
244.5
11
-201.5
21
244.5
0
LINE
5
9E
100
AcDbEntity
8
29A
6
ByBlock
62
256
370
-1
100
AcDbLine
10
-201.5
20
244.5
11
-201.5
21
204
0
LINE
5
9F
100
AcDbEntity
8
29A
6
ByBlock
62
256
370
-1
100
AcDbLine
10
-201.5
20
204
11
-299
21
201.5
0
LINE
5
A0
100
AcDbEntity
8
29A
6
ByBlock
62
256
370
-1
100
AcDbLine
10
-12
20
39
11
-12
21
244.5
0
LINE
5
A1
100
AcDbEntity
8
29A
6
ByBlock
62
256
370
-1
100
AcDbLine
10
-22
20
39
11
-22
21
244.5
0
LINE
5
A2
100
AcDbEntity
8
29A
6
ByBlock
62
256
370
-1
100
AcDbLine
10
710.5
20
98
11
641.339191507
21
155.591514728
0
LINE
5
A3
100
AcDbEntity
8
29A
6
ByBlock
62
256
370
-1
100
AcDbLine
10
715.5
20
188
11
705.5
21
188
0
ARC
5
A4
100
AcDbEntity
8
29A
6
ByBlock
62
256
370
-1
100
AcDbCircle
10
710.5
20
98
40
75
100
AcDbArc
50
89.7294215012
51
140.215210423
0
DIMENSION
5
A5
100
AcDbEntity
8
29A dimensions
6
ByBlock
62
256
370
-1
100
AcDbDimension
10
710.5
20
25.9724722541
30
0
11
355.25
21
25.9724722541
31
0
70
32
71
5
72
0
3
Standard
53
0
210
0
220
0
230
1
100
AcDbAlignedDimension
13
-1.45e-14
23
24.5
33
0
14
710.5
24
24.5
34
0
100
AcDbRotatedDimension
0
DIMENSION
5
A6
100
AcDbEntity
8
29A dimensions
6
ByBlock
62
256
370
-1
100
AcDbDimension
10
490.5
20
582.377387072
30
0
11
245.25
21
582.377387072
31
0
70
32
71
5
72
0
3
Standard
53
0
210
0
220
0
230
1
100
AcDbAlignedDimension
13
1.79e-14
23
554.5
33
0
14
490.5
24
554.5
34
0
100
AcDbRotatedDimension
0
DIMENSION
5
A7
100
AcDbEntity
8
29A dimensions
6
ByBlock
62
256
370
-1
100
AcDbDimension
10
-22
20
18.2296983333
30
0
11
-160.5
21
18.2296983333
31
0
70
32
71
5
72
0
3
Standard
53
0
210
0
220
0
230
1
100
AcDbAlignedDimension
13
-299
23
39
33
0
14
-22
24
39
34
0
100
AcDbRotatedDimension
0
DIMENSION
5
A8
100
AcDbEntity
8
29A dimensions
6
ByBlock
62
256
370
-1
100
AcDbDimension
10
-201.5
20
294.615530759
30
0
11
-250.25
21
294.615530759
31
0
70
32
71
5
72
0
3
Standard
53
0
210
0
220
0
230
1
100
AcDbAlignedDimension
13
-299
23
201.5
33
0
14
-201.5
24
244.5
34
0
100
AcDbRotatedDimension
0
DIMENSION
5
A9
100
AcDbEntity
8
29A dimensions
6
ByBlock
62
256
370
-1
100
AcDbDimension
10
-22
20
294.615530759
30
0
11
-111.75
21
294.615530759
31
0
70
32
71
5
72
0
3
Standard
53
0
210
0
220
0
230
1
100
AcDbAlignedDimension
13
-201.5
23
244.5
33
0
14
-22
24
244.5
34
0
100
AcDbRotatedDimension
0
DIMENSION
5
AA
100
AcDbEntity
8
29A dimensions
6
ByBlock
62
256
370
-1
100
AcDbDimension
10
-343.2208597
20
201.5
30
0
11
-343.2208597
21
120.25
31
0
70
32
71
5
72
0
3
Standard
53
0
210
0
220
0
230
1
100
AcDbAlignedDimension
13
-299
23
39
33
0
14
-299
24
201.5
34
0
50
90
100
AcDbRotatedDimension
0
DIMENSION
5
AB
100
AcDbEntity
8
29A dimensions
6
ByBlock
62
256
370
-1
100
AcDbDimension
10
-202.515345011
20
39
30
0
11
-202.515345011
21
121.5
31
0
70
32
71
5
72
0
3
Standard
53
0
210
0
220
0
230
1
100
AcDbAlignedDimension
13
-201.5
23
204
33
0
14
-201.5
24
39
34
0
50
90
100
AcDbRotatedDimension
0
LINE
5
AC
100
AcDbEntity
8
29A
6
ByBlock
62
256
370
-1
100
AcDbLine
10
715.5
20
98
11
705.5
21
98
0
LINE
5
AD
100
AcDbEntity
8
29A
6
ByBlock
62
256
370
-1
100
AcDbLine
10
490.5
20
549.5
11
490.5
21
537.5
0
LINE
5
AE
100
AcDbEntity
8
29A
6
ByBlock
62
256
370
-1
100
AcDbLine
10
490.5
20
537.5
11
463.5
21
537.5
0
LINE
5
AF
100
AcDbEntity
8
29A
6
ByBlock
62
256
370
-1
100
AcDbLine
10
463.5
20
537.5
11
463.5
21
554.5
0
LINE
5
B0
100
AcDbEntity
8
29A
6
ByBlock
62
256
370
-1
100
AcDbLine
10
-7
20
147
11
-27
21
147
0
LINE
5
B1
100
AcDbEntity
8
29A
6
ByBlock
62
256
370
-1
100
AcDbLine
10
-7
20
47
11
-27
21
47
0
LINE
5
B2
100
AcDbEntity
8
29A
6
ByBlock
62
256
370
-1
100
AcDbLine
10
-22
20
47
11
-102.496241211
21
106.332580855
0
ARC
5
B3
100
AcDbEntity
8
29A
6
ByBlock
62
256
370
-1
100
AcDbCircle
10
-22
20
47
40
85
100
AcDbArc
50
90
51
143.606625411
0
DIMENSION
5
B4
100
AcDbEntity
8
29B dimensions
6
ByBlock
62
256
370
-1
100
AcDbDimension
10
-60.7793054353
20
-3.5
30
0
11
-101.091805435
21
-23.5
31
0
70
32
71
5
72
0
3
Standard
53
0
210
0
220
0
230
1
100
AcDbAlignedDimension
13
0
23
0
33
0
14
-0.0999999999998
24
-3.5
34
0
50
90
100
AcDbRotatedDimension
0
DIMENSION
5
B5
100
AcDbEntity
8
29A dimensions
6
ByBlock
62
256
370
-1
100
AcDbDimension
10
23.8405444146
20
147
30
0
11
23.8405444146
21
97
31
0
70
32
71
5
72
0
3
Standard
53
0
210
0
220
0
230
1
100
AcDbAlignedDimension
13
-12
23
47
33
0
14
-12
24
147
34
0
50
90
100
AcDbRotatedDimension
0
DIMENSION
5
B6
100
AcDbEntity
8
29A dimensions
6
ByBlock
62
256
370
-1
100
AcDbDimension
10
23.8405444146
20
244.5
30
0
11
23.8405444146
21
195.75
31
0
70
32
71
5
72
0
3
Standard
53
0
210
0
220
0
230
1
100
AcDbAlignedDimension
13
-12
23
147
33
0
14
-12
24
244.5
34
0
50
90
100
AcDbRotatedDimension
0
DIMENSION
5
B7
100
AcDbEntity
8
29A dimensions
6
ByBlock
62
256
370
-1
100
AcDbDimension
10
676.577301555
20
188
30
0
11
676.577301555
21
227
31
0
70
32
71
5
72
0
3
Standard
53
0
210
0
220
0
230
1
100
AcDbAlignedDimension
13
709
23
266
33
0
14
710.5
24
188
34
0
50
90
100
AcDbRotatedDimension
0
DIMENSION
5
B8
100
AcDbEntity
8
29A dimensions
6
ByBlock
62
256
370
-1
100
AcDbDimension
10
747.475013591
20
98
30
0
11
747.475013591
21
143
31
0
70
32
71
5
72
0
3
Standard
53
0
210
0
220
0
230
1
100
AcDbAlignedDimension
13
710.5
23
188
33
0
14
710.5
24
98
34
0
50
90
100
AcDbRotatedDimension
0
DIMENSION
5
B9
100
AcDbEntity
8
29A dimensions
6
ByBlock
62
256
370
-1
100
AcDbDimension
10
676.577301555
20
10
30
0
11
676.577301555
21
54
31
0
70
32
71
5
72
0
3
Standard
53
0
210
0
220
0
230
1
100
AcDbAlignedDimension
13
710.5
23
98
33
0
14
710.5
24
10
34
0
50
90
100
AcDbRotatedDimension
0
LINE
5
BA
100
AcDbEntity
8
29A
6
ByBlock
62
256
370
-1
100
AcDbLine
10
1.006e-13
20
554.5
11
4.37e-14
21
244.5
0
DIMENSION
5
BB
100
AcDbEntity
8
29A dimensions
6
ByBlock
62
256
370
-1
100
AcDbDimension
10
-384.547536068
20
39
30
0
11
-384.547536068
21
141.75
31
0
70
32
71
5
72
0
3
Standard
53
0
210
0
220
0
230
1
100
AcDbAlignedDimension
13
-201.5
23
244.5
33
0
14
-299
24
39
34
0
50
90
100
AcDbRotatedDimension
0
DIMENSION
5
BC
100
AcDbEntity
8
29A dimensions
6
ByBlock
62
256
370
-1
100
AcDbDimension
10
23.9655444146
20
244.5
30
0
11
23.9655444146
21
399.5
31
0
70
32
71
5
72
0
3
Standard
53
0
210
0
220
0
230
1
100
AcDbAlignedDimension
13
1.006e-13
23
554.5
33
0
14
4.37e-14
24
244.5
34
0
50
90
100
AcDbRotatedDimension
0
DIMENSION
5
BD
100
AcDbEntity
8
29A dimensions
6
ByBlock
62
256
370
-1
100
AcDbDimension
10
270
20
231.850489529
30
0
11
252.721189897
21
231.850489529
31
0
70
32
71
5
72
0
3
Standard
53
0
210
0
220
0
230
1
100
AcDbAlignedDimension
13
189
23
266
33
0
14
270
24
266
34
0
100
AcDbRotatedDimension
0
DIMENSION
5
BE
100
AcDbEntity
8
29A dimensions
6
ByBlock
62
256
370
-1
100
AcDbDimension
10
303.551348648
20
348
30
0
11
303.551348648
21
289.069318718
31
0
70
32
71
5
72
0
3
Standard
53
0
210
0
220
0
230
1
100
AcDbAlignedDimension
13
270
23
266
33
0
14
270
24
348
34
0
50
90
100
AcDbRotatedDimension
0
DIMENSION
5
BF
100
AcDbEntity
8
29A dimensions
6
ByBlock
62
256
370
-1
100
AcDbDimension
10
5.52e-14
20
305.40886164
30
0
11
94.5
21
305.40886164
31
0
70
32
71
5
72
0
3
Standard
53
0
210
0
220
0
230
1
100
AcDbAlignedDimension
13
189
23
307
33
0
14
5.52e-14
24
307
34
0
100
AcDbRotatedDimension
0
DIMENSION
5
C0
100
AcDbEntity
8
29A dimensions
6
ByBlock
62
256
370
-1
100
AcDbDimension
10
232.552101855
20
554.5
30
0
11
232.552101855
21
451.25
31
0
70
32
71
5
72
0
3
Standard
53
0
210
0
220
0
230
1
100
AcDbAlignedDimension
13
229.5
23
348
33
0
14
229.5
24
554.5
34
0
50
90
100
AcDbRotatedDimension
0
DIMENSION
5
C1
100
AcDbEntity
8
29A dimensions
6
ByBlock
62
256
370
-1
100
AcDbDimension
10
229.76032577
20
10
30
0
11
229.76032577
21
138
31
0
70
32
71
5
72
0
3
Standard
53
0
210
0
220
0
230
1
100
AcDbAlignedDimension
13
229.5
23
266
33
0
14
229.5
24
10
34
0
50
90
100
AcDbRotatedDimension
0
DIMENSION
5
C2
100
AcDbEntity
8
29A dimensions
6
ByBlock
62
256
370
-1
100
AcDbDimension
10
709
20
307
30
0
11
489.5
21
307
31
0
70
32
71
5
72
0
3
Standard
53
0
210
0
220
0
230
1
100
AcDbAlignedDimension
13
270
23
307
33
0
14
709
24
307
34
0
100
AcDbRotatedDimension
0
LINE
5
C3
100
AcDbEntity
8
29A
6
ByBlock
62
256
370
-1
100
AcDbLine
10
490.5
20
549.5
11
747
21
549.5
0
LINE
5
C4
100
AcDbEntity
8
29A
6
ByBlock
62
256
370
-1
100
AcDbLine
10
744
20
348
11
747
21
549.5
0
DIMENSION
5
C5
100
AcDbEntity
8
29A dimensions
6
ByBlock
62
256
370
-1
100
AcDbDimension
10
747
20
581.603406768
30
0
11
618.75
21
581.603406768
31
0
70
32
71
5
72
0
3
Standard
53
0
210
0
220
0
230
1
100
AcDbAlignedDimension
13
490.5
23
549.5
33
0
14
747
24
549.5
34
0
100
AcDbRotatedDimension
0
DIMENSION
5
C6
100
AcDbEntity
8
29A dimensions
6
ByBlock
62
256
370
-1
100
AcDbDimension
10
747
20
592.085595376
30
0
11
782.3125
21
592.085595376
31
0
70
32
71
5
72
0
3
Standard
53
0
210
0
220
0
230
1
100
AcDbAlignedDimension
13
744
23
348
33
0
14
747
24
549.5
34
0
100
AcDbRotatedDimension
0
DIMENSION
5
C7
100
AcDbEntity
8
29A dimensions
6
ByBlock
62
256
370
-1
100
AcDbDimension
10
786.892776844
20
549.5
30
0
11
786.892776844
21
448.75
31
0
70
32
71
5
72
0
3
Standard
53
0
210
0
220
0
230
1
100
AcDbAlignedDimension
13
744
23
348
33
0
14
747
24
549.5
34
0
50
90
100
AcDbRotatedDimension
0
DIMENSION
5
C8
100
AcDbEntity
8
29A dimensions
6
ByBlock
62
256
370
-1
100
AcDbDimension
10
490.5
20
518.473729158
30
0
11
531.4375
21
518.473729158
31
0
70
32
71
5
72
0
3
Standard
53
0
210
0
220
0
230
1
100
AcDbAlignedDimension
13
463.5
23
537.5
33
0
14
490.5
24
537.5
34
0
100
AcDbRotatedDimension
0
DIMENSION
5
C9
100
AcDbEntity
8
29A dimensions
6
ByBlock
62
256
370
-1
100
AcDbDimension
10
440.844238239
20
537.5
30
0
11
411.781738239
21
517.5
31
0
70
32
71
5
72
0
3
Standard
53
0
210
0
220
0
230
1
100
AcDbAlignedDimension
13
463.5
23
554.5
33
0
14
463.5
24
537.5
34
0
50
90
100
AcDbRotatedDimension
0
LINE
5
CA
100
AcDbEntity
8
29B
6
ByBlock
62
256
370
-1
100
AcDbLine
10
829
20
0
11
782.685375675
21
-88.6281872411
0
LINE
5
CB
100
AcDbEntity
8
29B
6
ByBlock
62
256
370
-1
100
AcDbLine
10
0
20
-717.799201415
11
-66.6443097222
21
-677.270989246
0
LINE
5
CC
100
AcDbEntity
8
29B
6
ByBlock
62
256
370
-1
100
AcDbLine
10
0
20
-744.86747595
11
-69.7861522164
21
-779.708442625
0
ARC
5
CD
100
AcDbEntity
8
29B
6
ByBlock
62
256
370
-1
100
AcDbCircle
10
0
20
-744.86747595
40
60
100
AcDbArc
50
206.511850732
51
270
0
ARC
5
CE
100
AcDbEntity
8
29B
6
ByBlock
62
256
370
-1
100
AcDbCircle
10
0
20
-717.799201415
40
60
100
AcDbArc
50
90
51
148.695081261
0
ARC
5
CF
100
AcDbEntity
8
29B
6
ByBlock
62
256
370
-1
100
AcDbCircle
10
829
20
0
40
80
100
AcDbArc
50
180.025907616
51
242.409684076
0
HATCH
5
D0
100
AcDbEntity
8
29A
6
ByBlock
62
256
370
-1
100
AcDbHatch
10
0
20
0
30
0
210
0
220
0
230
1
2
ANSI31
70
0
71
0
91
2
92
0
93
4
72
1
10
-12
20
147
11
-12
21
244.5
72
1
10
-12
20
244.5
11
-22
21
244.5
72
1
10
-22
20
244.5
11
-22
21
147
72
1
10
-22
20
147
11
-12
21
147
97
0
92
0
93
4
72
1
10
-12
20
39
11
-12
21
47
72
1
10
-12
20
47
11
-22
21
47
72
1
10
-22
20
47
11
-22
21
39
72
1
10
-22
20
39
11
-12
21
39
97
0
75
0
76
1
52
0
41
50
77
0
78
0
98
0
0
MTEXT
5
D1
100
AcDbEntity
8
29B
6
ByLayer
62
256
370
-1
100
AcDbMText
10
88.415366007
20
764.161377632
30
0
40
50
41
552.777777778
71
1
72
5
1
Floor plan ACTA
7
standard
210
0
220
0
230
1
50
0
73
2
44
1
0
MTEXT
5
D2
100
AcDbEntity
8
0
6
ByLayer
62
256
370
-1
100
AcDbMText
10
609.238659715
20
518.183968725
30
0
40
50
41
100
71
1
72
1
1
29a
7
standard
210
0
220
0
230
1
50
0
73
2
44
1
0
MTEXT
5
D3
100
AcDbEntity
8
0
6
ByLayer
62
256
370
-1
100
AcDbMText
10
48.0106552492
20
-49.6661950854
30
0
40
50
41
100
71
1
72
1
1
29b
7
standard
210
0
220
0
230
1
50
0
73
2
44
1
0
ENDSEC
0
SECTION
2
OBJECTS
0
DICTIONARY
5
C
330
0
100
AcDbDictionary
281
1
3
ACAD_GROUP
350
D
0
DICTIONARY
5
D
330
C
100
AcDbDictionary
281
1
0
ENDSEC
0
EOF
